<svg xmlns="http://www.w3.org/2000/svg" viewBox="0 0 352.74 197.24"><style><![CDATA[.D{stroke:#1d1d1b}.E{stroke-miterlimit:10}.F{stroke-width:2}.G{stroke-linecap:round}]]></style><g fill="none" class="D E F"><path d="M101.52 95.72h150.7"/><path d="M1 196.24l98.98-98.98" class="G"/></g><path d="M101.08 107.73l-2-.07.36-9.86-9.85.36-.07-2 12-.44-.44 12z" fill="#1d1d1b"/><path d="M351.2 194.7l-98.98-99" fill="none" class="D E F G"/><path d="M352.3 184.24l-2 .07.36 9.85-9.85-.35-.08 2 12 .43-.44-12z" fill="#1d1d1b"/><path d="M101.52 95.73c2.24-5.2 4.5-10.42 1.54-13.38-5.92-5.92-20.84 9-26.76 3.08s9-20.84 3.08-26.76-20.84 9-26.76 3.08 9-20.84 3.08-26.75-20.84 9-26.76 3.07 9-20.84 3.08-26.75-20.84 9-26.76 3.07c-3-3-.7-8.17 1.53-13.38m245.43 94.7c-2.25-5.2-4.5-10.4-1.54-13.37 5.9-5.92 20.83 9 26.75 3.08s-9-20.85-3.07-26.77 20.84 9 26.75 3.1-9-20.84-3.1-26.75 20.84 9 26.77 3.08-9-20.84-3.1-26.76 20.85 9 26.77 3.08c3-3 .7-8.18-1.54-13.4" fill="none" class="D E F G"/></svg>